<svg width="718" height="524" viewBox="0 0 718 524" fill="none" xmlns="http://www.w3.org/2000/svg">
<path fill-rule="evenodd" clip-rule="evenodd" d="M357.783 110.515L358.18 110.745L361.18 112.477L361.778 112.822L362.015 112.959L363.278 112.229L448.695 161.545L531.046 209.09L536.01 211.956L535.64 212.17L621.294 261.622L617.584 263.764L531.93 214.312L530.877 214.92L530.18 215.322V213.441L529.881 213.613L363.01 309.956L361.908 310.593L358.278 312.688L355.149 310.881L354.412 310.456L359.144 307.724L440.361 260.834L526.015 211.381L361.18 116.214L358.778 114.827L191.908 211.17L188.278 213.266L184.046 210.822L188.144 208.456L269.629 161.411L354.546 112.384L355.283 111.959L357.783 110.515Z" fill="#6A00F4"/>
<path fill-rule="evenodd" clip-rule="evenodd" d="M357.783 110.515L358.18 110.745L361.18 112.477L361.778 112.822L362.015 112.959L363.278 112.229L448.695 161.545L531.046 209.09L536.01 211.956L535.64 212.17L621.294 261.622L617.584 263.764L531.93 214.312L530.877 214.92L530.18 215.322V213.441L529.881 213.613L363.01 309.956L361.908 310.593L358.278 312.688L355.149 310.881L354.412 310.456L359.144 307.724L440.361 260.834L526.015 211.381L361.18 116.214L358.778 114.827L191.908 211.17L188.278 213.266L184.046 210.822L188.144 208.456L269.629 161.411L354.546 112.384L355.283 111.959L357.783 110.515Z" fill="url(#paint0_linear)"/>
<path d="M354.127 112.142L354.546 112.384M529.93 213.642L529.881 213.613M356.85 212.618L358.778 213.732M443.452 262.618L440.361 260.834M189.127 13.1417L357.783 110.515M364.93 114.642L362.015 112.959M190.127 210.142L191.908 211.17M365.93 311.642L363.01 309.956M361.127 310.142L361.908 310.593M536.93 411.642L361.908 310.593M363.127 112.142L363.278 112.229M538.93 213.642L536.01 211.956M532.127 210.142L535.64 212.17M707.93 311.642L621.294 261.622M184.43 211.142L8.62656 312.642M358.43 110.142L357.783 110.515M182.627 211.642L184.046 210.822M532.43 10.1417L358.18 110.745M356.627 111.642L358.18 110.745M356.43 310.142L355.149 310.881M180.627 411.642L355.149 310.881M702.43 110.142L531.046 209.09M526.627 211.642L531.046 209.09M526.43 211.142L526.015 211.381M350.627 312.642L354.412 310.456M11.3766 416.307L11.3766 311.307M706.377 415.307V310.307M535.377 516.307V411.307M182.377 516.307V411.307M13.1266 112.142L184.046 210.822M188.93 213.642L188.278 213.266M16.1266 109.142L188.144 208.456M191.93 210.642L188.144 208.456M15.8496 212.618L102.452 262.618M15.3766 214.307L15.3766 112.307M11.3766 414.307L11.3766 312.307M184.127 212.142L354.412 310.456M359.93 313.642L358.278 312.688M186.85 312.618L273.452 362.618M184.127 13.1417L355.283 111.959M359.93 114.642L355.283 111.959M186.85 113.618L269.629 161.411M273.452 163.618L269.629 161.411M186.377 115.307V13.3068M534.43 13.1417L361.778 112.822M358.627 114.642L361.778 112.822M531.707 113.618L448.695 161.545M445.104 163.618L448.695 161.545M532.18 115.307V13.3068M532.43 212.142L530.18 213.441M356.627 313.642L358.278 312.688M529.707 312.618L443.104 362.618M530.18 314.307V215.322M530.18 212.307V213.441M705.43 114.142L536.01 211.956M529.627 215.642L530.18 215.322M702.707 214.618L621.294 261.622M616.104 264.618L617.584 263.764M703.18 216.307V114.307M363.43 112.142L363.278 112.229M187.627 213.642L188.278 213.266M360.707 212.618L358.778 213.732M274.104 262.618L277.561 260.622M361.18 214.307V116.214M361.18 112.307V112.477M358.832 415.606V314.606M533.082 514.307L531.832 513.585M531.832 513.585L359.877 414.307M531.832 513.585V513.606M531.832 513.585V413.585M533.082 414.307L531.832 413.585M531.832 413.585L359.877 314.307M531.832 413.585V412.606M530.877 315.606V214.92M530.877 214.606V214.92M705.127 414.307L703.877 413.585M703.877 413.585L531.921 314.307M703.877 413.585V413.606M703.877 413.585V313.585M705.127 314.307L703.877 313.585M703.877 313.585V312.606M703.877 313.585L617.584 263.764M531.921 214.307L531.93 214.312M188.127 315.606L188.127 214.606M13.8766 414.307L15.1266 413.585M15.1266 413.585L187.082 314.307M15.1266 413.585V413.606M15.1266 413.585L15.1266 313.585M13.8766 314.307L15.1266 313.585M15.1266 313.585L187.082 214.307M15.1266 313.585V312.606M359.127 415.606V314.606M184.877 514.307L186.127 513.585M186.127 513.585L358.082 414.307M186.127 513.585V513.606M186.127 513.585V413.585M184.877 414.307L186.127 413.585M186.127 413.585L358.082 314.307M186.127 413.585V412.606M361.18 116.214L358.778 114.827M361.18 116.214L526.015 211.381M361.18 116.214V112.477M358.778 114.827L191.908 211.17M358.778 114.827L354.546 112.384M358.778 114.827L362.015 112.959M191.908 211.17L277.561 260.622M191.908 211.17L188.278 213.266M277.561 260.622L358.778 213.732M277.561 260.622L359.144 307.724M358.778 213.732L440.361 260.834M440.361 260.834L526.015 211.381M440.361 260.834L359.144 307.724M526.015 211.381L529.881 213.613M357.783 110.515L358.18 110.745M357.783 110.515L355.283 111.959M358.18 110.745L361.18 112.477M361.18 112.477L361.778 112.822M361.778 112.822L362.015 112.959M362.015 112.959L363.278 112.229M363.278 112.229L448.695 161.545M448.695 161.545L531.046 209.09M531.046 209.09L536.01 211.956M536.01 211.956L535.64 212.17M535.64 212.17L621.294 261.622M535.64 212.17L531.93 214.312M621.294 261.622L617.584 263.764M617.584 263.764L531.93 214.312M531.93 214.312L530.877 214.92M530.877 214.92L530.18 215.322M530.18 215.322V213.441M530.18 213.441L529.881 213.613M529.881 213.613L363.01 309.956M363.01 309.956L361.908 310.593M363.01 309.956L359.144 307.724M361.908 310.593L358.278 312.688M358.278 312.688L355.149 310.881M355.149 310.881L354.412 310.456M354.412 310.456L359.144 307.724M188.278 213.266L184.046 210.822M184.046 210.822L188.144 208.456M188.144 208.456L269.629 161.411M269.629 161.411L354.546 112.384M354.546 112.384L355.283 111.959" stroke="black" stroke-width="22"/>
<defs>
<linearGradient id="paint0_linear" x1="358.278" y1="10.1417" x2="358.278" y2="516.307" gradientUnits="userSpaceOnUse">
<stop stop-color="#E500A4"/>
<stop offset="1" stop-color="white" stop-opacity="0"/>
</linearGradient>
</defs>
</svg>
